<svg xmlns="http://www.w3.org/2000/svg" xmlns:xlink="http://www.w3.org/1999/xlink" width="75" zoomAndPan="magnify" viewBox="0 0 56.25 46.5" height="62" preserveAspectRatio="xMidYMid meet" version="1.0"><defs><clipPath id="65bd445d09"><path d="M 0 1 L 55.511719 1 L 55.511719 45.949219 L 0 45.949219 Z M 0 1 " clip-rule="nonzero"/></clipPath></defs><g clip-path="url(#65bd445d09)"><path fill="#000000" d="M 25.613281 39.808594 C 25.789062 40 25.925781 40.214844 26.015625 40.457031 C 26.109375 40.699219 26.15625 40.949219 26.152344 41.207031 C 26.148438 41.46875 26.097656 41.71875 26 41.957031 C 25.902344 42.195312 25.761719 42.410156 25.582031 42.59375 C 24.925781 43.320312 24.234375 44.007812 23.5 44.65625 C 23.148438 44.90625 22.769531 45.105469 22.359375 45.25 C 21.929688 45.289062 21.527344 45.203125 21.148438 44.996094 C 20.769531 44.789062 20.480469 44.496094 20.277344 44.113281 C 20.078125 43.777344 19.992188 43.417969 20.023438 43.027344 C 20.054688 42.640625 20.199219 42.296875 20.449219 42 C 21.195312 41.136719 21.996094 40.332031 22.855469 39.589844 C 23.050781 39.417969 23.273438 39.296875 23.519531 39.214844 C 23.769531 39.136719 24.019531 39.105469 24.28125 39.125 C 24.539062 39.148438 24.785156 39.214844 25.015625 39.335938 C 25.246094 39.453125 25.445312 39.613281 25.613281 39.808594 Z M 12.292969 26.714844 C 12.117188 26.328125 11.847656 26.019531 11.496094 25.789062 C 11.140625 25.558594 10.753906 25.433594 10.328125 25.425781 C 9.886719 25.574219 9.472656 25.78125 9.082031 26.039062 C 8.316406 26.71875 7.59375 27.4375 6.910156 28.203125 C 6.726562 28.394531 6.585938 28.613281 6.488281 28.859375 C 6.394531 29.109375 6.347656 29.363281 6.355469 29.628906 C 6.363281 29.894531 6.425781 30.148438 6.535156 30.390625 C 6.644531 30.632812 6.796875 30.84375 6.992188 31.023438 C 7.175781 31.207031 7.386719 31.351562 7.625 31.453125 C 7.863281 31.558594 8.109375 31.613281 8.371094 31.617188 C 8.628906 31.625 8.882812 31.582031 9.125 31.488281 C 9.367188 31.398438 9.585938 31.265625 9.773438 31.089844 C 10.550781 30.386719 11.289062 29.648438 11.988281 28.871094 C 12.269531 28.582031 12.441406 28.238281 12.496094 27.839844 C 12.554688 27.441406 12.484375 27.066406 12.292969 26.710938 Z M 16.394531 30.609375 C 16.199219 30.429688 15.980469 30.292969 15.730469 30.199219 C 15.484375 30.105469 15.230469 30.058594 14.964844 30.0625 C 14.699219 30.066406 14.445312 30.117188 14.199219 30.21875 C 13.957031 30.316406 13.738281 30.457031 13.546875 30.640625 C 12.824219 31.300781 12.136719 31.992188 11.492188 32.726562 C 11.253906 33.054688 11.0625 33.414062 10.925781 33.796875 C 10.875 34.242188 10.957031 34.65625 11.167969 35.046875 C 11.382812 35.4375 11.6875 35.734375 12.089844 35.929688 C 12.449219 36.128906 12.835938 36.199219 13.246094 36.148438 C 13.65625 36.09375 14.011719 35.925781 14.3125 35.644531 C 15.070312 34.960938 15.800781 34.242188 16.488281 33.488281 C 16.679688 33.292969 16.824219 33.070312 16.921875 32.816406 C 17.023438 32.5625 17.066406 32.300781 17.058594 32.027344 C 17.050781 31.753906 16.988281 31.496094 16.871094 31.25 C 16.757812 31.003906 16.597656 30.789062 16.394531 30.609375 Z M 21.625 36.933594 C 21.542969 35.816406 21.1875 35.148438 20.375 34.78125 C 19.992188 34.597656 19.59375 34.542969 19.175781 34.617188 C 18.757812 34.691406 18.402344 34.882812 18.109375 35.1875 C 17.425781 35.820312 16.769531 36.488281 16.125 37.160156 C 15.925781 37.351562 15.769531 37.570312 15.65625 37.824219 C 15.546875 38.078125 15.488281 38.34375 15.484375 38.621094 C 15.480469 38.894531 15.53125 39.164062 15.632812 39.417969 C 15.738281 39.675781 15.886719 39.902344 16.082031 40.097656 C 16.277344 40.292969 16.503906 40.441406 16.761719 40.546875 C 17.019531 40.648438 17.285156 40.699219 17.5625 40.695312 C 17.839844 40.691406 18.105469 40.636719 18.359375 40.527344 C 18.613281 40.417969 18.835938 40.261719 19.027344 40.0625 C 19.703125 39.453125 20.34375 38.808594 20.949219 38.128906 C 21.222656 37.757812 21.445312 37.355469 21.625 36.933594 Z M 52.332031 7.429688 C 51.925781 6.839844 51.46875 6.285156 50.972656 5.765625 C 50.476562 5.230469 49.941406 4.738281 49.371094 4.285156 C 48.628906 3.710938 47.828125 3.230469 46.96875 2.84375 C 44.628906 1.75 42.167969 1.164062 39.585938 1.089844 C 36.949219 1.15625 34.476562 1.824219 32.164062 3.089844 C 30.328125 4.179688 28.699219 5.515625 27.277344 7.109375 C 25.128906 9.269531 22.949219 11.402344 20.804688 13.570312 C 20.660156 13.703125 20.53125 13.851562 20.421875 14.015625 C 20.308594 14.179688 20.214844 14.351562 20.144531 14.535156 C 20.070312 14.71875 20.019531 14.910156 19.988281 15.101562 C 19.957031 15.296875 19.949219 15.496094 19.960938 15.691406 C 19.972656 15.890625 20.007812 16.082031 20.0625 16.269531 C 20.121094 16.460938 20.195312 16.640625 20.292969 16.8125 C 20.390625 16.988281 20.503906 17.144531 20.636719 17.292969 C 20.765625 17.441406 20.914062 17.570312 21.074219 17.683594 C 21.324219 17.867188 21.597656 18.003906 21.898438 18.089844 C 22.195312 18.179688 22.5 18.210938 22.808594 18.191406 C 23.121094 18.171875 23.417969 18.097656 23.699219 17.96875 C 23.984375 17.84375 24.238281 17.671875 24.460938 17.457031 C 25.464844 16.515625 30.523438 11.585938 31.976562 10.125 C 39.605469 17.683594 45.1875 23.261719 46.53125 24.640625 C 47.46875 25.597656 48.328125 26.492188 48.328125 26.492188 C 48.929688 27.125 49.542969 27.773438 50.183594 28.441406 C 50.617188 27.894531 51.097656 27.347656 51.566406 26.78125 C 52.039062 26.207031 52.480469 25.613281 52.886719 24.992188 C 54.289062 22.757812 55.113281 20.328125 55.355469 17.703125 C 55.53125 14.808594 54.9375 12.089844 53.570312 9.535156 C 53.203125 8.808594 52.792969 8.105469 52.332031 7.429688 Z M 31.972656 13.367188 C 29.863281 15.417969 26.59375 18.621094 25.78125 19.335938 C 25.308594 19.730469 24.777344 20.023438 24.195312 20.222656 C 23.613281 20.421875 23.015625 20.507812 22.398438 20.480469 C 21.785156 20.457031 21.195312 20.320312 20.628906 20.078125 C 20.066406 19.835938 19.5625 19.496094 19.125 19.066406 C 18.683594 18.636719 18.335938 18.140625 18.082031 17.582031 C 17.824219 17.019531 17.679688 16.433594 17.648438 15.816406 C 17.613281 15.203125 17.695312 14.601562 17.886719 14.019531 C 18.078125 13.433594 18.371094 12.902344 18.761719 12.429688 C 19.402344 11.664062 20.132812 10.972656 20.84375 10.261719 C 22.605469 8.492188 24.378906 6.726562 26.191406 4.921875 C 25.199219 4.027344 24.109375 3.28125 22.917969 2.679688 C 21.730469 2.078125 20.480469 1.640625 19.175781 1.367188 C 17.867188 1.097656 16.550781 1 15.21875 1.082031 C 13.886719 1.160156 12.585938 1.414062 11.324219 1.835938 C 4.976562 3.992188 1.292969 8.527344 0.546875 15.207031 C 0.417969 16.277344 0.410156 17.355469 0.519531 18.429688 C 0.628906 19.507812 0.851562 20.558594 1.195312 21.585938 C 1.535156 22.609375 1.984375 23.585938 2.542969 24.515625 C 3.097656 25.441406 3.75 26.296875 4.496094 27.082031 C 5.527344 26.136719 6.472656 25.25 7.441406 24.390625 C 7.691406 24.152344 7.96875 23.945312 8.265625 23.773438 C 8.566406 23.601562 8.882812 23.464844 9.214844 23.367188 C 9.546875 23.273438 9.886719 23.214844 10.234375 23.199219 C 10.578125 23.183594 10.921875 23.210938 11.261719 23.277344 C 11.601562 23.347656 11.929688 23.453125 12.242188 23.597656 C 12.558594 23.742188 12.847656 23.925781 13.121094 24.140625 C 13.390625 24.355469 13.632812 24.601562 13.84375 24.875 C 14.054688 25.152344 14.230469 25.445312 14.371094 25.761719 C 14.613281 26.394531 14.800781 27.042969 14.929688 27.707031 C 17.667969 27.949219 19.160156 29.480469 19.402344 32.242188 C 22.210938 32.496094 23.726562 34.015625 23.953125 36.765625 C 24.03125 36.792969 24.113281 36.8125 24.195312 36.824219 C 24.53125 36.832031 24.859375 36.878906 25.183594 36.964844 C 25.507812 37.050781 25.816406 37.167969 26.113281 37.324219 C 26.410156 37.480469 26.683594 37.667969 26.9375 37.886719 C 27.191406 38.101562 27.417969 38.347656 27.617188 38.617188 C 27.8125 38.886719 27.976562 39.175781 28.109375 39.484375 C 28.242188 39.789062 28.335938 40.109375 28.394531 40.4375 C 28.457031 40.765625 28.476562 41.097656 28.460938 41.433594 C 28.441406 41.765625 28.386719 42.09375 28.296875 42.417969 C 28.253906 42.617188 28.292969 42.800781 28.417969 42.960938 C 29.230469 43.792969 30.035156 44.628906 30.90625 45.398438 C 31.082031 45.535156 31.273438 45.644531 31.488281 45.714844 C 31.699219 45.789062 31.917969 45.824219 32.140625 45.820312 C 32.367188 45.820312 32.582031 45.78125 32.792969 45.703125 C 33.003906 45.625 33.195312 45.515625 33.371094 45.375 C 33.617188 45.183594 33.8125 44.945312 33.953125 44.667969 C 34.09375 44.386719 34.167969 44.089844 34.175781 43.777344 C 34.179688 43.464844 34.117188 43.164062 33.984375 42.882812 C 33.855469 42.597656 33.667969 42.355469 33.425781 42.15625 C 31.382812 40.109375 29.332031 38.074219 27.289062 36.03125 C 27.199219 35.9375 27.117188 35.839844 27.042969 35.730469 L 23.492188 32.179688 C 23.390625 32.074219 23.3125 31.953125 23.257812 31.816406 C 23.203125 31.683594 23.175781 31.539062 23.179688 31.394531 C 23.179688 31.25 23.207031 31.109375 23.265625 30.972656 C 23.320312 30.835938 23.402344 30.71875 23.503906 30.613281 C 23.609375 30.511719 23.726562 30.429688 23.863281 30.375 C 23.996094 30.316406 24.136719 30.289062 24.285156 30.289062 C 24.429688 30.285156 24.570312 30.3125 24.707031 30.367188 C 24.84375 30.421875 24.964844 30.5 25.070312 30.601562 L 28.640625 34.171875 C 28.738281 34.242188 28.828125 34.316406 28.914062 34.394531 C 29.558594 35.007812 30.203125 35.613281 30.835938 36.238281 C 32.308594 37.695312 33.757812 39.171875 35.246094 40.613281 C 35.449219 40.820312 35.683594 40.976562 35.953125 41.085938 C 36.222656 41.191406 36.5 41.242188 36.789062 41.230469 C 37.078125 41.222656 37.351562 41.152344 37.613281 41.023438 C 37.871094 40.898438 38.09375 40.722656 38.28125 40.503906 C 38.449219 40.292969 38.578125 40.058594 38.65625 39.800781 C 38.738281 39.542969 38.765625 39.277344 38.746094 39.007812 C 38.722656 38.738281 38.652344 38.480469 38.53125 38.238281 C 38.414062 37.996094 38.25 37.785156 38.046875 37.605469 C 35.964844 35.507812 33.859375 33.425781 31.765625 31.332031 C 30.769531 30.335938 29.757812 29.351562 28.785156 28.328125 C 28.671875 28.226562 28.585938 28.105469 28.527344 27.96875 C 28.464844 27.832031 28.433594 27.6875 28.433594 27.535156 C 28.433594 27.386719 28.460938 27.242188 28.519531 27.101562 C 28.578125 26.960938 28.664062 26.839844 28.773438 26.738281 C 28.878906 26.632812 29 26.550781 29.140625 26.492188 C 29.277344 26.433594 29.421875 26.402344 29.570312 26.398438 C 29.722656 26.398438 29.867188 26.421875 30.007812 26.476562 C 30.148438 26.53125 30.273438 26.609375 30.382812 26.710938 C 30.519531 26.828125 30.652344 26.953125 30.777344 27.082031 C 33.746094 30.039062 36.707031 33 39.691406 35.9375 C 40.015625 36.261719 40.398438 36.484375 40.839844 36.609375 C 41.277344 36.71875 41.699219 36.683594 42.113281 36.507812 C 42.527344 36.328125 42.839844 36.039062 43.058594 35.644531 C 43.285156 35.246094 43.367188 34.816406 43.304688 34.359375 C 43.242188 33.90625 43.046875 33.515625 42.722656 33.191406 C 40.449219 30.894531 38.15625 28.617188 35.867188 26.332031 C 35.050781 25.515625 34.210938 24.707031 33.40625 23.871094 C 33.285156 23.769531 33.191406 23.648438 33.121094 23.507812 C 33.050781 23.367188 33.011719 23.21875 33.003906 23.0625 C 32.992188 22.90625 33.015625 22.753906 33.066406 22.609375 C 33.117188 22.460938 33.199219 22.328125 33.304688 22.210938 C 33.417969 22.097656 33.550781 22.011719 33.699219 21.949219 C 33.847656 21.886719 34.003906 21.859375 34.167969 21.859375 C 34.328125 21.863281 34.484375 21.894531 34.632812 21.957031 C 34.78125 22.023438 34.910156 22.113281 35.023438 22.230469 C 35.125 22.316406 35.214844 22.421875 35.3125 22.519531 C 38.261719 25.460938 41.210938 28.398438 44.164062 31.335938 C 44.453125 31.671875 44.8125 31.902344 45.238281 32.027344 C 45.664062 32.152344 46.089844 32.148438 46.515625 32.023438 L 46.574219 32.003906 C 46.738281 31.933594 46.894531 31.847656 47.039062 31.738281 C 47.183594 31.632812 47.3125 31.507812 47.421875 31.367188 C 47.535156 31.226562 47.625 31.070312 47.699219 30.90625 C 47.769531 30.742188 47.820312 30.570312 47.847656 30.390625 C 47.875 30.214844 47.878906 30.035156 47.859375 29.855469 C 47.839844 29.679688 47.800781 29.503906 47.734375 29.335938 C 47.671875 29.167969 47.585938 29.011719 47.480469 28.863281 C 47.375 28.71875 47.253906 28.589844 47.117188 28.472656 C 43.777344 25.132812 36.238281 17.605469 31.972656 13.367188 Z M 31.972656 13.367188 " fill-opacity="1" fill-rule="nonzero"/></g></svg>