<svg xmlns="http://www.w3.org/2000/svg" xmlns:xlink="http://www.w3.org/1999/xlink" width="75" zoomAndPan="magnify" viewBox="0 0 56.25 46.5" height="62" preserveAspectRatio="xMidYMid meet" version="1.0"><defs><clipPath id="f8fc1c0d66"><path d="M 9.503906 0.0585938 L 45.769531 0.0585938 L 45.769531 45.949219 L 9.503906 45.949219 Z M 9.503906 0.0585938 " clip-rule="nonzero"/></clipPath></defs><g clip-path="url(#f8fc1c0d66)"><path fill="#040606" d="M 35.949219 36.710938 C 35.21875 36.710938 34.617188 37.308594 34.617188 38.050781 C 34.617188 38.300781 34.691406 38.546875 34.824219 38.761719 L 36.449219 41.371094 C 36.640625 41.679688 36.707031 42.042969 36.636719 42.398438 C 36.25 44.378906 34.523438 45.8125 32.515625 45.8125 L 31.792969 45.8125 C 29.78125 45.8125 28.054688 44.378906 27.667969 42.398438 C 27.597656 42.042969 27.667969 41.679688 27.859375 41.371094 L 29.484375 38.761719 C 29.875 38.136719 29.6875 37.308594 29.0625 36.914062 C 28.855469 36.78125 28.609375 36.710938 28.355469 36.710938 L 18.550781 36.710938 L 18.550781 26.824219 C 18.550781 26.082031 17.957031 25.480469 17.21875 25.480469 C 16.96875 25.480469 16.722656 25.554688 16.511719 25.6875 L 13.917969 27.324219 C 13.613281 27.519531 13.25 27.585938 12.898438 27.515625 C 10.925781 27.125 9.503906 25.390625 9.503906 23.367188 L 9.503906 22.640625 C 9.503906 20.617188 10.925781 18.878906 12.898438 18.492188 C 13.25 18.421875 13.613281 18.488281 13.917969 18.683594 L 16.511719 20.316406 C 17.132812 20.710938 17.957031 20.519531 18.351562 19.898438 C 18.484375 19.683594 18.550781 19.433594 18.550781 19.183594 L 18.550781 9.296875 L 28.355469 9.296875 C 29.089844 9.296875 29.691406 8.699219 29.691406 7.957031 C 29.691406 7.707031 29.617188 7.457031 29.484375 7.242188 L 27.859375 4.636719 C 27.667969 4.328125 27.597656 3.964844 27.667969 3.605469 C 28.054688 1.621094 29.78125 0.191406 31.792969 0.191406 L 32.515625 0.191406 C 34.523438 0.191406 36.25 1.621094 36.636719 3.605469 C 36.707031 3.964844 36.640625 4.328125 36.449219 4.636719 L 34.824219 7.242188 C 34.433594 7.871094 34.617188 8.699219 35.242188 9.09375 C 35.453125 9.226562 35.699219 9.296875 35.949219 9.296875 L 45.753906 9.296875 L 45.753906 18.554688 C 45.753906 19.300781 45.152344 19.90625 44.417969 19.90625 C 44.164062 19.90625 43.917969 19.835938 43.703125 19.699219 L 41.394531 18.238281 C 40.980469 17.980469 40.480469 17.886719 40.003906 17.980469 C 37.789062 18.417969 36.191406 20.371094 36.191406 22.640625 L 36.191406 23.367188 C 36.191406 25.636719 37.789062 27.589844 40.003906 28.027344 C 40.480469 28.117188 40.980469 28.027344 41.394531 27.765625 L 43.703125 26.308594 C 44.328125 25.910156 45.15625 26.101562 45.546875 26.734375 C 45.683594 26.949219 45.753906 27.195312 45.753906 27.449219 L 45.753906 36.710938 L 35.949219 36.710938 " fill-opacity="1" fill-rule="nonzero"/></g></svg>