<svg xmlns="http://www.w3.org/2000/svg" xmlns:xlink="http://www.w3.org/1999/xlink" width="75" zoomAndPan="magnify" viewBox="0 0 56.25 46.5" height="62" preserveAspectRatio="xMidYMid meet" version="1.0"><defs><clipPath id="ab726dec20"><path d="M 13.023438 0.0585938 L 42.628906 0.0585938 L 42.628906 44.453125 L 13.023438 44.453125 Z M 13.023438 0.0585938 " clip-rule="nonzero"/></clipPath></defs><path fill="#000000" d="M 17.703125 31.539062 C 17.703125 37.09375 22.242188 41.617188 27.832031 41.617188 C 33.421875 41.617188 37.960938 37.101562 37.960938 31.539062 C 37.960938 25.980469 33.414062 21.464844 27.824219 21.464844 C 22.234375 21.464844 17.703125 25.988281 17.703125 31.539062 Z M 36.742188 31.539062 C 36.742188 36.433594 32.738281 40.40625 27.832031 40.40625 C 22.925781 40.40625 18.921875 36.421875 18.921875 31.539062 C 18.921875 26.65625 22.925781 22.675781 27.832031 22.675781 C 32.738281 22.675781 36.742188 26.648438 36.742188 31.539062 Z M 36.742188 31.539062 " fill-opacity="1" fill-rule="nonzero"/><path fill="#000000" d="M 27.289062 25.914062 L 25.832031 28.851562 L 22.566406 29.320312 C 22.335938 29.355469 22.148438 29.511719 22.074219 29.734375 C 22.003906 29.953125 22.066406 30.191406 22.234375 30.347656 L 24.59375 32.632812 L 24.039062 35.863281 C 24.003906 36.09375 24.097656 36.320312 24.28125 36.449219 C 24.382812 36.523438 24.511719 36.570312 24.640625 36.570312 C 24.734375 36.570312 24.835938 36.550781 24.925781 36.496094 L 27.839844 34.972656 L 30.757812 36.496094 C 30.960938 36.605469 31.207031 36.589844 31.394531 36.449219 C 31.578125 36.3125 31.667969 36.082031 31.632812 35.863281 L 31.078125 32.632812 L 33.441406 30.347656 C 33.605469 30.191406 33.660156 29.945312 33.597656 29.734375 C 33.523438 29.511719 33.339844 29.355469 33.109375 29.320312 L 29.84375 28.851562 L 28.386719 25.914062 C 28.164062 25.5 27.492188 25.5 27.289062 25.914062 Z M 28.882812 29.667969 C 28.976562 29.84375 29.140625 29.972656 29.335938 30 L 31.695312 30.339844 L 29.992188 32 C 29.851562 32.136719 29.777344 32.339844 29.816406 32.53125 L 30.222656 34.871094 L 28.109375 33.769531 C 27.933594 33.679688 27.722656 33.679688 27.546875 33.769531 L 25.433594 34.871094 L 25.839844 32.53125 C 25.875 32.339844 25.8125 32.136719 25.664062 32 L 23.949219 30.339844 L 26.308594 30 C 26.503906 29.972656 26.679688 29.84375 26.761719 29.667969 L 27.824219 27.539062 Z M 28.882812 29.667969 " fill-opacity="1" fill-rule="nonzero"/><g clip-path="url(#ab726dec20)"><path fill="#000000" d="M 42.507812 -1.140625 C 42.398438 -1.324219 42.203125 -1.433594 41.980469 -1.433594 L 33.117188 -1.433594 C 32.894531 -1.433594 32.695312 -1.316406 32.582031 -1.121094 L 27.824219 7.542969 L 23.0625 -1.121094 C 22.953125 -1.316406 22.75 -1.433594 22.527344 -1.433594 L 13.671875 -1.433594 C 13.449219 -1.433594 13.257812 -1.324219 13.148438 -1.140625 C 13.035156 -0.957031 13.035156 -0.726562 13.136719 -0.542969 L 22.40625 16.304688 C 21.882812 16.445312 21.484375 16.894531 21.484375 17.453125 L 21.484375 20.289062 C 17.527344 22.5 14.851562 26.714844 14.851562 31.539062 C 14.851562 38.664062 20.675781 44.453125 27.824219 44.453125 C 34.980469 44.453125 40.800781 38.664062 40.800781 31.539062 C 40.800781 26.714844 38.117188 22.5 34.167969 20.289062 L 34.167969 17.453125 C 34.167969 16.894531 33.773438 16.445312 33.246094 16.304688 L 42.515625 -0.542969 C 42.617188 -0.726562 42.617188 -0.957031 42.507812 -1.140625 Z M 33.488281 -0.230469 L 36.53125 -0.230469 L 30.035156 11.5625 L 28.515625 8.789062 Z M 31.234375 16.25 L 28.191406 16.25 L 19.125 -0.230469 L 22.167969 -0.230469 Z M 17.742188 -0.230469 L 26.808594 16.25 L 23.765625 16.25 L 14.695312 -0.230469 Z M 39.59375 31.539062 C 39.59375 37.992188 34.316406 43.242188 27.832031 43.242188 C 21.347656 43.242188 16.070312 37.992188 16.070312 31.539062 C 16.070312 25.089844 21.339844 19.839844 27.824219 19.839844 C 34.316406 19.839844 39.59375 25.089844 39.59375 31.539062 Z M 27.824219 18.636719 C 26.003906 18.636719 24.269531 19.011719 22.695312 19.691406 L 22.695312 17.460938 L 32.960938 17.460938 L 32.960938 19.691406 C 31.382812 19.011719 29.648438 18.636719 27.824219 18.636719 Z M 32.261719 15.597656 L 30.738281 12.828125 L 37.914062 -0.222656 L 40.957031 -0.222656 Z M 32.261719 15.597656 " fill-opacity="1" fill-rule="nonzero"/></g></svg>